<svg id="Layer_1" data-name="Layer 1" xmlns="http://www.w3.org/2000/svg" viewBox="0 0 513.52 516.07"><defs><style>.cls-1{fill:#7f583d;}.cls-2{fill:#faa95f;}.cls-3{fill:#ed9e6d;}.cls-4{fill:#bd584b;}.cls-5{fill:#be584b;}.cls-6{fill:#cc634f;}.cls-7{fill:#cd634f;}</style></defs><title>2</title><path class="cls-1" d="M470.53,552.56c2.26-8.64,4.4-17.31,6.79-25.92,18.35-65.78,78.05-94.63,140.46-67.12,53.27,23.49,83.77,65,93.64,122.14q4.07,23.6,9.1,47c1.34,6.21,3.18,12.49,8,18.27,7.82-15.6,10.2-32,12.3-48.35C748.46,539,776,492.94,831,466.06c25.27-12.34,52.15-16.91,79.86-8.47,40.26,12.27,59.41,43,68.58,81.28C992.79,594.48,976.31,642.52,940,685c-5,5.8-9.7,11.91-15.35,17-31.18,28-45,64.14-50.62,104.49-8.45,60.77-36.77,108.83-90.35,140.84-14.78,8.84-31.41,12.17-47.23,17.94H702.09c-25-2.29-42.8-16.32-57.56-35.27a98.81,98.81,0,0,0-11.67-12.59C604.77,892,589.31,860,582.34,823.21c-3.9-20.61-7.25-41.34-13.73-61.43-7.6-23.55-21.66-42.59-38.77-60-21.27-21.61-40-45-51.25-73.79-4.35-11.14-5.63-22.74-8.06-34.19Z" transform="translate(-470.53 -449.15)"/><path class="cls-2" d="M963.57,572.28c.22,45.18-18.38,77.85-45.1,106.33-25,26.62-49.26,53.32-57.3,90.44-4.34,20-7.31,40.4-12.51,60.2-13.5,51.37-43.77,89.31-93.75,109.08-52.34,20.69-98.27-4.87-107.46-60.23-9.37-56.48,2.77-107.45,44.67-149.05,13-12.92,24.65-27,36-41.44,21.21-27.07,29.25-58.77,33.7-92,6.64-49.76,31.09-87.55,76.35-110.92A94.62,94.62,0,0,1,897,475c26.75,4.14,44.12,21.28,54.89,45.23C959.88,538.08,964,557,963.57,572.28Z" transform="translate(-470.53 -449.15)"/><path class="cls-3" d="M629,802.34c-4.3,22.78-7.19,45.64-2.67,71.12-13.91-20.38-18.83-41.37-22.85-62.73q-4.53-24.12-10.41-47.94c-9-36.07-32.56-62.27-57-88.25-22.32-23.73-39.7-50.58-43.67-83.77-4.36-36.48.86-71.22,26.92-99.25,21.85-23.5,50.1-27.14,79.13-17.62,51.11,16.77,81.31,53.12,92.18,105.57,4.93,23.78,4.71,49.41,16.9,70.64,9.68,16.86,5.51,27.7-6.3,39.19-1.9,1.85-3.86,3.63-5.8,5.45-4.95,1.37-7.67-2.52-11-4.77-30.55-20.64-57.86-9.72-64.27,26.48-4,22.31-4.81,44.74,5.66,66.08C628.8,788.69,630.86,795.26,629,802.34Z" transform="translate(-470.53 -449.15)"/><path class="cls-4" d="M629,802.34c0-5.93-2.42-11.25-5-16.23-11.6-22.18-11.18-45.58-6.94-69.14,7.49-41.65,41.58-53.34,73.84-25.68,1.44,1.24,3,2.31,4.55,3.46-7.27,13.7-20.44,22.39-29.31,34.9A270.8,270.8,0,0,0,629,802.34Z" transform="translate(-470.53 -449.15)"/><path class="cls-1" d="M892.52,597.63c3.32-14,8.66-25.26,17.28-34.73,3.73-4.09,8.55-5,13.3-1.22s5.21,8.85,2.28,13.29c-5.48,8.32-10.29,16.74-13.16,26.41-1.6,5.39-6.6,7.27-12.11,5.94C894.36,605.92,892.55,601.58,892.52,597.63Z" transform="translate(-470.53 -449.15)"/><path class="cls-1" d="M798.7,765.33c2.54-10.42,7.82-22.54,17.63-32.1,3.65-3.55,8.52-3.16,12.51.07s5.56,7.63,2.41,12.13a99.44,99.44,0,0,0-13.85,27.31,8.8,8.8,0,0,1-10.86,6.2C801.27,777.66,797.84,774.22,798.7,765.33Z" transform="translate(-470.53 -449.15)"/><path class="cls-1" d="M862.56,534.67a10.92,10.92,0,0,1-2.45,7.7,70.64,70.64,0,0,0-11.62,23.33c-1.89,6.66-7.32,9.17-13.47,6.87-5.48-2.05-7.7-6.83-5.91-13.07a83.18,83.18,0,0,1,15.55-30.24c3.17-3.86,7.46-5.58,12.22-3.34C860.45,527.6,863,530.49,862.56,534.67Z" transform="translate(-470.53 -449.15)"/><path class="cls-1" d="M734.46,731c2.92-10.55,7.57-22.54,17.19-31.82,4.12-4,9.13-3.75,13.37,0,3.84,3.36,4.9,7.64,1.69,12.21a100.56,100.56,0,0,0-13.26,26.29c-1.57,4.73-5.68,8.4-11.65,6.64C736.38,742.67,733.64,738.91,734.46,731Z" transform="translate(-470.53 -449.15)"/><path class="cls-1" d="M708.3,778c7.35-.18,13.54,7.47,10.23,13.3-5.81,10.24-11.45,20.43-15.77,31.43-1.31,3.33-5.76,4.66-10,3.4-4-1.2-6.44-3.46-7.06-7.89-1.35-9.67,10.61-34.59,18.94-38.8A35.68,35.68,0,0,1,708.3,778Z" transform="translate(-470.53 -449.15)"/><path class="cls-1" d="M750.25,846c1.67-9.75,7.81-21,16.63-30.72,3.36-3.7,8.32-3.86,12.47-.6,4.41,3.47,6,8.21,2.67,13.08-5.78,8.55-10.76,17.35-13.81,27.33-1.47,4.79-5.89,6.84-11,5.57C751.4,859.27,749.37,855.14,750.25,846Z" transform="translate(-470.53 -449.15)"/><path class="cls-1" d="M785.25,639.85c3.47-12.87,8.37-24.32,17.38-33.58,3.63-3.73,7.81-4.54,12.31-1.54s6,8,3.63,12c-5.65,9.46-11,18.89-14.65,29.39-1.85,5.28-7.58,6.36-12.67,4.32C786.51,648.57,785,644.22,785.25,639.85Z" transform="translate(-470.53 -449.15)"/><path class="cls-1" d="M873.73,637.47c7.71-.13,12.68,8.53,8.09,15.69-5.37,8.37-10.07,16.8-13.05,26.37-1.67,5.36-6.73,7.08-12.17,5.74-5.22-1.29-8-5.71-7-10.31,2.67-13.2,8.26-25.21,18-34.86A7.8,7.8,0,0,1,873.73,637.47Z" transform="translate(-470.53 -449.15)"/><path class="cls-5"   d="M518.69,574c1.79-16.31,2.11-34.66,10.29-51.59,13.47-27.88,37.84-38.86,65.95-26.43,45.66,20.17,73.24,56.71,78.68,105.66,5.72,51.46-54.59,94.85-93.53,81.75-15.23-5.12-26.8-14.64-35.73-27.2C527.33,632.26,519.66,605.05,518.69,574Z" transform="translate(-470.53 -449.15)"/><path class="cls-6" d="M626.43,741.92c1.1-16.56.32-33.64,14.07-46.45,9.74-9.07,22.78-9.45,33.16-1.27,3.9,3.07,1.92,5,0,7.38-7.32,9.17-15.08,18-21.87,27.59-6.14,8.63-11.11,18.1-16.91,27-1.43,2.2-1.83,6.93-6,5.36-3.36-1.27-2.37-5.21-2.45-8.18C626.36,749.54,626.43,745.73,626.43,741.92Z" transform="translate(-470.53 -449.15)"/><path class="cls-7" d="M530.22,572.82c-1.33-15.61.74-32.38,8.37-47.55C551,500.6,577.94,494.6,603,510.1c30.31,18.73,49.34,46.33,59,79.95,10.68,37.27-25.89,85.55-64.7,86-12.64.16-24.37-4.53-34.18-13.57C544.93,645.73,527.87,611.11,530.22,572.82Z" transform="translate(-470.53 -449.15)" fill='blue'/></svg>